<svg xmlns="http://www.w3.org/2000/svg" xmlns:xlink="http://www.w3.org/1999/xlink" viewBox="0 0 48 48" id="chemical"><defs><linearGradient id="a" x1="4.14" x2="42.58" y1="24.01" y2="24.01" gradientUnits="userSpaceOnUse"><stop offset="0" stop-color="#84bf04"></stop><stop offset="1" stop-color="#317302"></stop></linearGradient><linearGradient id="b" y1="44" y2="44" xlink:href="#a"></linearGradient></defs><path fill="url(#a)" d="M34.61,39.86l-6.45-11.35v-5.8c.8-.4,1.35-1.22,1.35-2.17,0-1.35-1.09-2.44-2.44-2.44h-2.07v-2.28c3.1-.66,5.04-1.7,6.04-3.23,.78-1.2,.97-2.67,.56-4.4-.11-.48-.56-.8-1.05-.77-1.49,.12-2.77,.42-3.83,.89,.16-2.11-.85-3.79-1.99-4.99-.38-.4-1.07-.4-1.45,0-1.14,1.2-2.15,2.88-1.99,4.99-1.06-.47-2.34-.77-3.83-.89-.48-.04-.94,.29-1.05,.77-.41,1.72-.22,3.2,.56,4.4,1,1.54,2.94,2.57,6.04,3.23v2.28h-2.07c-1.35,0-2.44,1.1-2.44,2.44,0,.95,.55,1.77,1.35,2.17v5.8l-6.45,11.35c-.61,1.08-.6,2.36,.02,3.43,.62,1.07,1.74,1.71,2.98,1.71h1.76c.55,0,1-.45,1-1s-.45-1-1-1h-1.76c-.52,0-.99-.27-1.25-.72s-.26-.99,0-1.44l.76-1.34c.56,.61,1.35,.99,2.23,.99,1.67,0,3.04-1.36,3.04-3.04,0-.57,.46-1.04,1.04-1.04s1.04,.46,1.04,1.04c0,1.67,1.36,3.04,3.04,3.04s3.04-1.36,3.04-3.04c0-.57,.46-1.04,1.04-1.04,0,0,.01,0,.02,0l2.51,4.42c.26,.45,.25,.99,0,1.44s-.73,.72-1.25,.72h-5.46c-.55,0-1,.45-1,1s.45,1,1,1h5.46c1.24,0,2.35-.64,2.98-1.71,.62-1.07,.63-2.35,.02-3.43Zm-5.24-28.38c-.65,1-2.08,1.75-4.36,2.28,.04-.98,.33-1.8,.86-2.44,.78-.94,2.1-1.55,3.93-1.82,.06,.78-.08,1.43-.43,1.98Zm-5.37-5.89c.98,1.48,.98,3.03,0,4.76-.98-1.73-.98-3.29,0-4.76Zm-5.37,5.89c-.35-.54-.5-1.19-.43-1.98,1.84,.27,3.16,.88,3.93,1.82,.53,.64,.81,1.46,.86,2.44-2.28-.53-3.71-1.28-4.36-2.28Zm2.3,8.6h6.14c.24,0,.44,.2,.44,.44s-.2,.44-.44,.44h-6.14c-.24,0-.44-.2-.44-.44s.2-.44,.44-.44Zm6.37,17.38c0,.57-.46,1.04-1.04,1.04s-1.04-.46-1.04-1.04c0-1.67-1.36-3.04-3.04-3.04s-3.04,1.36-3.04,3.04c0,.57-.46,1.04-1.04,1.04s-1.04-.46-1.04-1.04c0-.02,0-.03,0-.04l4.63-8.16c.09-.15,.13-.32,.13-.49v-5.8h4.32v5.8c0,.17,.04,.34,.13,.49l3.04,5.35c-1.18,.42-2.03,1.53-2.03,2.85Z"></path><circle cx="22.15" cy="44" r="1" fill="url(#b)"></circle></svg>